<svg width="640" height="480" viewBox="0 0 640 480" fill="none" xmlns="http://www.w3.org/2000/svg">
  <rect width="640" height="480" rx="32" fill="#0F172A"/>
  <rect x="64" y="64" width="184" height="184" rx="24" fill="#1E293B"/>
  <rect x="64" y="272" width="184" height="16" rx="8" fill="#38BDF8"/>
  <rect x="272" y="72" width="304" height="48" rx="16" fill="#1E293B"/>
  <rect x="272" y="136" width="304" height="16" rx="8" fill="#CBD5F5" fill-opacity="0.55"/>
  <rect x="272" y="168" width="304" height="16" rx="8" fill="#CBD5F5" fill-opacity="0.35"/>
  <rect x="272" y="200" width="240" height="16" rx="8" fill="#CBD5F5" fill-opacity="0.2"/>
  <rect x="272" y="248" width="304" height="72" rx="18" fill="#1E293B"/>
  <rect x="272" y="336" width="304" height="72" rx="18" fill="#1E293B"/>
  <path d="M312 272H536" stroke="#38BDF8" stroke-width="4" stroke-linecap="round"/>
  <path d="M312 296H512" stroke="#38BDF8" stroke-opacity="0.5" stroke-width="4" stroke-linecap="round"/>
  <path d="M312 320H436" stroke="#38BDF8" stroke-opacity="0.3" stroke-width="4" stroke-linecap="round"/>
  <path d="M312 360H520" stroke="#FACC15" stroke-width="4" stroke-linecap="round"/>
  <path d="M312 384H444" stroke="#FACC15" stroke-opacity="0.4" stroke-width="4" stroke-linecap="round"/>
  <rect x="64" y="320" width="184" height="96" rx="20" fill="#1E293B"/>
  <path d="M92 348H220" stroke="#38BDF8" stroke-width="4" stroke-linecap="round"/>
  <path d="M92 372H208" stroke="#38BDF8" stroke-opacity="0.5" stroke-width="4" stroke-linecap="round"/>
  <path d="M92 396H184" stroke="#38BDF8" stroke-opacity="0.3" stroke-width="4" stroke-linecap="round"/>
</svg>
